<mxfile host="app.diagrams.net" modified="2023-01-13T02:36:58.117Z" agent="5.0 (Macintosh; Intel Mac OS X 10_15_7) AppleWebKit/537.36 (KHTML, like Gecko) Chrome/108.0.0.0 Safari/537.36" etag="sWZwBiS_gWWLjzjY_81W" version="20.7.4" type="github">
  <diagram name="Page-1" id="19d8dcba-68ad-dc05-1034-9cf7b2a963f6">
    <mxGraphModel dx="1674" dy="714" grid="1" gridSize="10" guides="1" tooltips="1" connect="1" arrows="1" fold="1" page="1" pageScale="1" pageWidth="1100" pageHeight="850" background="none" math="0" shadow="0">
      <root>
        <mxCell id="0" />
        <mxCell id="1" parent="0" />
        <mxCell id="iW7-KNHF0I2JIrnmxIen-2" style="edgeStyle=orthogonalEdgeStyle;rounded=0;orthogonalLoop=1;jettySize=auto;html=1;exitX=0.5;exitY=1;exitDx=0;exitDy=0;" edge="1" parent="1" source="6257edae8c83ed4a-9" target="iW7-KNHF0I2JIrnmxIen-1">
          <mxGeometry relative="1" as="geometry" />
        </mxCell>
        <mxCell id="6257edae8c83ed4a-9" value="前端开发" style="whiteSpace=wrap;html=1;rounded=1;shadow=0;comic=0;strokeWidth=2;fontFamily=Verdana;align=center;fontSize=12;fontStyle=1" parent="1" vertex="1">
          <mxGeometry x="570" y="230" width="200" height="50" as="geometry" />
        </mxCell>
        <mxCell id="iW7-KNHF0I2JIrnmxIen-30" style="edgeStyle=orthogonalEdgeStyle;rounded=0;orthogonalLoop=1;jettySize=auto;html=1;entryX=0.5;entryY=0;entryDx=0;entryDy=0;" edge="1" parent="1" source="6257edae8c83ed4a-12" target="iW7-KNHF0I2JIrnmxIen-23">
          <mxGeometry relative="1" as="geometry" />
        </mxCell>
        <mxCell id="6257edae8c83ed4a-12" value="后端开发" style="whiteSpace=wrap;html=1;rounded=1;shadow=0;comic=0;strokeWidth=2;fontFamily=Verdana;align=center;fontSize=12;fontStyle=1" parent="1" vertex="1">
          <mxGeometry x="887" y="230" width="200" height="50" as="geometry" />
        </mxCell>
        <mxCell id="iW7-KNHF0I2JIrnmxIen-5" style="edgeStyle=orthogonalEdgeStyle;rounded=0;orthogonalLoop=1;jettySize=auto;html=1;exitX=1;exitY=0.5;exitDx=0;exitDy=0;" edge="1" parent="1" source="6257edae8c83ed4a-1" target="218ae93e1282097f-2">
          <mxGeometry relative="1" as="geometry" />
        </mxCell>
        <mxCell id="iW7-KNHF0I2JIrnmxIen-6" style="edgeStyle=orthogonalEdgeStyle;rounded=0;orthogonalLoop=1;jettySize=auto;html=1;" edge="1" parent="1" source="6257edae8c83ed4a-1" target="iW7-KNHF0I2JIrnmxIen-4">
          <mxGeometry relative="1" as="geometry" />
        </mxCell>
        <mxCell id="iW7-KNHF0I2JIrnmxIen-15" style="edgeStyle=orthogonalEdgeStyle;rounded=0;orthogonalLoop=1;jettySize=auto;html=1;entryX=0.5;entryY=0;entryDx=0;entryDy=0;" edge="1" parent="1" source="6257edae8c83ed4a-1" target="6257edae8c83ed4a-9">
          <mxGeometry relative="1" as="geometry" />
        </mxCell>
        <mxCell id="iW7-KNHF0I2JIrnmxIen-16" style="edgeStyle=orthogonalEdgeStyle;rounded=0;orthogonalLoop=1;jettySize=auto;html=1;exitX=0.5;exitY=1;exitDx=0;exitDy=0;entryX=0.5;entryY=0;entryDx=0;entryDy=0;" edge="1" parent="1" source="6257edae8c83ed4a-1" target="6257edae8c83ed4a-12">
          <mxGeometry relative="1" as="geometry" />
        </mxCell>
        <mxCell id="iW7-KNHF0I2JIrnmxIen-21" style="edgeStyle=orthogonalEdgeStyle;rounded=0;orthogonalLoop=1;jettySize=auto;html=1;exitX=0;exitY=0.5;exitDx=0;exitDy=0;entryX=0.5;entryY=0;entryDx=0;entryDy=0;" edge="1" parent="1" source="6257edae8c83ed4a-1" target="iW7-KNHF0I2JIrnmxIen-20">
          <mxGeometry relative="1" as="geometry" />
        </mxCell>
        <mxCell id="iW7-KNHF0I2JIrnmxIen-45" style="edgeStyle=orthogonalEdgeStyle;rounded=0;orthogonalLoop=1;jettySize=auto;html=1;exitX=0;exitY=0.5;exitDx=0;exitDy=0;" edge="1" parent="1" source="6257edae8c83ed4a-1" target="iW7-KNHF0I2JIrnmxIen-43">
          <mxGeometry relative="1" as="geometry">
            <Array as="points">
              <mxPoint x="310" y="165" />
              <mxPoint x="310" y="345" />
            </Array>
          </mxGeometry>
        </mxCell>
        <mxCell id="6257edae8c83ed4a-1" value="工程中心" style="whiteSpace=wrap;html=1;rounded=1;shadow=0;comic=0;strokeWidth=2;fontFamily=Verdana;align=center;fontSize=12;fontStyle=1" parent="1" vertex="1">
          <mxGeometry x="887" y="140" width="200" height="50" as="geometry" />
        </mxCell>
        <mxCell id="218ae93e1282097f-2" value="用户服务（胡杨林）" style="whiteSpace=wrap;html=1;rounded=1;shadow=0;comic=0;strokeWidth=2;fontFamily=Verdana;align=center;fontSize=12;fontStyle=1" parent="1" vertex="1">
          <mxGeometry x="1160" y="210" width="220" height="90" as="geometry" />
        </mxCell>
        <mxCell id="iW7-KNHF0I2JIrnmxIen-1" value="" style="whiteSpace=wrap;html=1;rounded=1;shadow=0;comic=0;strokeWidth=2;fontFamily=Verdana;align=center;fontSize=10;" vertex="1" parent="1">
          <mxGeometry x="520" y="380" width="300" height="160" as="geometry" />
        </mxCell>
        <mxCell id="iW7-KNHF0I2JIrnmxIen-40" style="edgeStyle=orthogonalEdgeStyle;rounded=0;orthogonalLoop=1;jettySize=auto;html=1;exitX=0.5;exitY=1;exitDx=0;exitDy=0;entryX=0.5;entryY=0;entryDx=0;entryDy=0;" edge="1" parent="1" source="iW7-KNHF0I2JIrnmxIen-4" target="iW7-KNHF0I2JIrnmxIen-33">
          <mxGeometry relative="1" as="geometry" />
        </mxCell>
        <mxCell id="iW7-KNHF0I2JIrnmxIen-4" value="测试（苗先荣）" style="whiteSpace=wrap;html=1;rounded=1;shadow=0;comic=0;strokeWidth=2;fontFamily=Verdana;align=center;fontSize=12;fontStyle=1" vertex="1" parent="1">
          <mxGeometry x="1430" y="230" width="200" height="50" as="geometry" />
        </mxCell>
        <mxCell id="iW7-KNHF0I2JIrnmxIen-7" value="吴叶" style="rounded=0;whiteSpace=wrap;html=1;" vertex="1" parent="1">
          <mxGeometry x="530" y="396" width="80" height="37" as="geometry" />
        </mxCell>
        <mxCell id="iW7-KNHF0I2JIrnmxIen-9" value="王爽" style="rounded=0;whiteSpace=wrap;html=1;" vertex="1" parent="1">
          <mxGeometry x="730" y="397.5" width="80" height="37" as="geometry" />
        </mxCell>
        <mxCell id="iW7-KNHF0I2JIrnmxIen-10" value="朱纹颉" style="rounded=0;whiteSpace=wrap;html=1;" vertex="1" parent="1">
          <mxGeometry x="627" y="397.5" width="80" height="37" as="geometry" />
        </mxCell>
        <mxCell id="iW7-KNHF0I2JIrnmxIen-11" value="张举涛" style="rounded=0;whiteSpace=wrap;html=1;" vertex="1" parent="1">
          <mxGeometry x="627" y="449.5" width="80" height="37" as="geometry" />
        </mxCell>
        <mxCell id="iW7-KNHF0I2JIrnmxIen-12" value="高志山" style="rounded=0;whiteSpace=wrap;html=1;" vertex="1" parent="1">
          <mxGeometry x="730" y="450" width="80" height="37" as="geometry" />
        </mxCell>
        <mxCell id="iW7-KNHF0I2JIrnmxIen-13" value="刘高荣" style="rounded=0;whiteSpace=wrap;html=1;fillColor=#FF9999;" vertex="1" parent="1">
          <mxGeometry x="530" y="450" width="80" height="37" as="geometry" />
        </mxCell>
        <mxCell id="iW7-KNHF0I2JIrnmxIen-20" value="App（李明佳）" style="whiteSpace=wrap;html=1;rounded=1;shadow=0;comic=0;strokeWidth=2;fontFamily=Verdana;align=center;fontSize=12;fontStyle=1" vertex="1" parent="1">
          <mxGeometry x="340" y="230" width="200" height="50" as="geometry" />
        </mxCell>
        <mxCell id="iW7-KNHF0I2JIrnmxIen-23" value="" style="whiteSpace=wrap;html=1;rounded=1;shadow=0;comic=0;strokeWidth=2;fontFamily=Verdana;align=center;fontSize=10;" vertex="1" parent="1">
          <mxGeometry x="837" y="380" width="300" height="160" as="geometry" />
        </mxCell>
        <mxCell id="iW7-KNHF0I2JIrnmxIen-24" value="马静云" style="rounded=0;whiteSpace=wrap;html=1;" vertex="1" parent="1">
          <mxGeometry x="851" y="395" width="80" height="37" as="geometry" />
        </mxCell>
        <mxCell id="iW7-KNHF0I2JIrnmxIen-25" value="胡斌" style="rounded=0;whiteSpace=wrap;html=1;" vertex="1" parent="1">
          <mxGeometry x="1051" y="396.5" width="80" height="37" as="geometry" />
        </mxCell>
        <mxCell id="iW7-KNHF0I2JIrnmxIen-26" value="赵金鹏" style="rounded=0;whiteSpace=wrap;html=1;" vertex="1" parent="1">
          <mxGeometry x="948" y="396.5" width="80" height="37" as="geometry" />
        </mxCell>
        <mxCell id="iW7-KNHF0I2JIrnmxIen-27" value="朱俊瑞" style="rounded=0;whiteSpace=wrap;html=1;" vertex="1" parent="1">
          <mxGeometry x="948" y="448.5" width="80" height="37" as="geometry" />
        </mxCell>
        <mxCell id="iW7-KNHF0I2JIrnmxIen-28" value="李明佳" style="rounded=0;whiteSpace=wrap;html=1;fillColor=#66CC00;" vertex="1" parent="1">
          <mxGeometry x="1051" y="449" width="80" height="37" as="geometry" />
        </mxCell>
        <mxCell id="iW7-KNHF0I2JIrnmxIen-29" value="刘龙" style="rounded=0;whiteSpace=wrap;html=1;fillColor=#FFFFFF;" vertex="1" parent="1">
          <mxGeometry x="851" y="449" width="80" height="37" as="geometry" />
        </mxCell>
        <mxCell id="iW7-KNHF0I2JIrnmxIen-33" value="" style="whiteSpace=wrap;html=1;rounded=1;shadow=0;comic=0;strokeWidth=2;fontFamily=Verdana;align=center;fontSize=10;" vertex="1" parent="1">
          <mxGeometry x="1380" y="378.5" width="300" height="130" as="geometry" />
        </mxCell>
        <mxCell id="iW7-KNHF0I2JIrnmxIen-35" value="杨秋洁" style="rounded=0;whiteSpace=wrap;html=1;" vertex="1" parent="1">
          <mxGeometry x="1440" y="426.5" width="80" height="37" as="geometry" />
        </mxCell>
        <mxCell id="iW7-KNHF0I2JIrnmxIen-36" value="许新颖" style="rounded=0;whiteSpace=wrap;html=1;fillColor=#FF9999;" vertex="1" parent="1">
          <mxGeometry x="1560" y="425" width="80" height="37" as="geometry" />
        </mxCell>
        <mxCell id="iW7-KNHF0I2JIrnmxIen-41" value="李坤" style="rounded=0;whiteSpace=wrap;html=1;fillColor=#66CC00;" vertex="1" parent="1">
          <mxGeometry x="948" y="497" width="80" height="37" as="geometry" />
        </mxCell>
        <mxCell id="iW7-KNHF0I2JIrnmxIen-42" value="李坤" style="rounded=0;whiteSpace=wrap;html=1;fillColor=#66CC00;" vertex="1" parent="1">
          <mxGeometry x="627" y="497" width="80" height="37" as="geometry" />
        </mxCell>
        <mxCell id="iW7-KNHF0I2JIrnmxIen-43" value="GIS（高山峰）" style="whiteSpace=wrap;html=1;rounded=1;shadow=0;comic=0;strokeWidth=2;fontFamily=Verdana;align=center;fontSize=12;fontStyle=1" vertex="1" parent="1">
          <mxGeometry x="340" y="320" width="200" height="50" as="geometry" />
        </mxCell>
        <mxCell id="iW7-KNHF0I2JIrnmxIen-44" value="" style="shape=actor;whiteSpace=wrap;html=1;rounded=0;shadow=0;comic=0;strokeWidth=1;fillColor=#CCCCCC;fontFamily=Verdana;align=center;strokeColor=none;fontSize=12;fontStyle=1" vertex="1" parent="1">
          <mxGeometry x="160" y="240" width="24" height="30" as="geometry" />
        </mxCell>
      </root>
    </mxGraphModel>
  </diagram>
</mxfile>
